<svg width="800" height="600" viewBox="0 0 800 600" xmlns="http://www.w3.org/2000/svg">
  <rect width="800" height="600" fill="#f8fafc" rx="8"/>
  <rect width="800" height="40" fill="#e2e8f0" rx="8"/>
  <rect x="200" y="12" width="400" height="20" rx="10" fill="white" stroke="#cbd5e1"/>
  <circle cx="24" cy="20" r="6" fill="#f87171"/>
  <circle cx="44" cy="20" r="6" fill="#fbbf24"/>
  <circle cx="64" cy="20" r="6" fill="#34d399"/>
  <text x="256" y="27" font-family="monospace" font-size="11" fill="#64748b">topaitools.xyz</text>
  <defs>
    <linearGradient id="heroGrad" x1="0%" y1="0%" x2="100%" y2="100%">
      <stop offset="0%" style="stop-color:#4F46E5"/>
      <stop offset="100%" style="stop-color:#7C3AED"/>
    </linearGradient>
  </defs>
  <rect x="40" y="60" width="720" height="120" rx="12" fill="url(#heroGrad)"/>
  <text x="400" y="105" font-family="Arial" font-size="28" font-weight="bold" fill="white" text-anchor="middle">Top AI Tools</text>
  <text x="400" y="135" font-family="Arial" font-size="14" fill="rgba(255,255,255,0.85)" text-anchor="middle">Discover, compare, and choose the best AI tools</text>
  <rect x="300" y="148" width="200" height="20" rx="10" fill="rgba(255,255,255,0.2)"/>
  <text x="400" y="163" font-family="Arial" font-size="11" fill="white" text-anchor="middle">Search 149+ tools...</text>
  <rect x="40" y="200" width="165" height="90" rx="10" fill="white" stroke="#e2e8f0"/>
  <text x="52" y="225" font-family="Arial" font-size="11" font-weight="bold" fill="#4F46E5">AI Chatbots</text>
  <text x="52" y="245" font-family="Arial" font-size="9" fill="#94a3b8">Intelligent conversational AI</text>
  <text x="52" y="272" font-family="Arial" font-size="10" fill="#4F46E5" font-weight="bold">15 tools</text>
  <rect x="220" y="200" width="165" height="90" rx="10" fill="white" stroke="#e2e8f0"/>
  <text x="232" y="225" font-family="Arial" font-size="11" font-weight="bold" fill="#ec4899">Image Generation</text>
  <text x="232" y="245" font-family="Arial" font-size="9" fill="#94a3b8">Create stunning images</text>
  <text x="232" y="272" font-family="Arial" font-size="10" fill="#ec4899" font-weight="bold">24 tools</text>
  <rect x="400" y="200" width="165" height="90" rx="10" fill="white" stroke="#e2e8f0"/>
  <text x="412" y="225" font-family="Arial" font-size="11" font-weight="bold" fill="#10b981">Video and Animation</text>
  <text x="412" y="245" font-family="Arial" font-size="9" fill="#94a3b8">Generate and edit videos</text>
  <text x="412" y="272" font-family="Arial" font-size="10" fill="#10b981" font-weight="bold">19 tools</text>
  <rect x="580" y="200" width="165" height="90" rx="10" fill="white" stroke="#e2e8f0"/>
  <text x="592" y="225" font-family="Arial" font-size="11" font-weight="bold" fill="#f59e0b">Audio and Music</text>
  <text x="592" y="245" font-family="Arial" font-size="9" fill="#94a3b8">Generate speech and music</text>
  <text x="592" y="272" font-family="Arial" font-size="10" fill="#f59e0b" font-weight="bold">18 tools</text>
  <rect x="40" y="305" width="165" height="90" rx="10" fill="white" stroke="#e2e8f0"/>
  <text x="52" y="330" font-family="Arial" font-size="11" font-weight="bold" fill="#3b82f6">Code and Dev</text>
  <text x="52" y="350" font-family="Arial" font-size="9" fill="#94a3b8">AI coding assistants</text>
  <text x="52" y="377" font-family="Arial" font-size="10" fill="#3b82f6" font-weight="bold">29 tools</text>
  <rect x="220" y="305" width="165" height="90" rx="10" fill="white" stroke="#e2e8f0"/>
  <text x="232" y="330" font-family="Arial" font-size="11" font-weight="bold" fill="#8b5cf6">Writing and Content</text>
  <text x="232" y="350" font-family="Arial" font-size="9" fill="#94a3b8">AI writing tools</text>
  <text x="232" y="377" font-family="Arial" font-size="10" fill="#8b5cf6" font-weight="bold">10 tools</text>
  <rect x="400" y="305" width="165" height="90" rx="10" fill="white" stroke="#e2e8f0"/>
  <text x="412" y="330" font-family="Arial" font-size="11" font-weight="bold" fill="#f97316">Productivity</text>
  <text x="412" y="350" font-family="Arial" font-size="9" fill="#94a3b8">Boost your workflow</text>
  <text x="412" y="377" font-family="Arial" font-size="10" fill="#f97316" font-weight="bold">28 tools</text>
  <rect x="580" y="305" width="165" height="90" rx="10" fill="white" stroke="#e2e8f0"/>
  <text x="592" y="330" font-family="Arial" font-size="11" font-weight="bold" fill="#06b6d4">Design and UI</text>
  <text x="592" y="350" font-family="Arial" font-size="9" fill="#94a3b8">AI-assisted design tools</text>
  <text x="592" y="377" font-family="Arial" font-size="10" fill="#06b6d4" font-weight="bold">12 tools</text>
  <rect x="40" y="420" width="720" height="50" rx="10" fill="#f1f5f9"/>
  <text x="130" y="450" font-family="Arial" font-size="13" fill="#334155" text-anchor="middle" font-weight="bold">149+ Tools</text>
  <text x="270" y="450" font-family="Arial" font-size="13" fill="#334155" text-anchor="middle" font-weight="bold">9 Categories</text>
  <text x="410" y="450" font-family="Arial" font-size="13" fill="#334155" text-anchor="middle" font-weight="bold">15 Blog Posts</text>
  <text x="550" y="450" font-family="Arial" font-size="13" fill="#334155" text-anchor="middle" font-weight="bold">Free to Use</text>
  <text x="680" y="450" font-family="Arial" font-size="13" fill="#334155" text-anchor="middle" font-weight="bold">No Login</text>
  <rect x="40" y="490" width="350" height="50" rx="10" fill="white" stroke="#e2e8f0"/>
  <text x="215" y="512" font-family="Arial" font-size="11" fill="#4F46E5" font-weight="bold" text-anchor="middle">Compare Tools Side by Side</text>
  <text x="215" y="528" font-family="Arial" font-size="9" fill="#94a3b8" text-anchor="middle">Pick any 2+ tools and compare features</text>
  <rect x="410" y="490" width="350" height="50" rx="10" fill="white" stroke="#e2e8f0"/>
  <text x="585" y="512" font-family="Arial" font-size="11" fill="#4F46E5" font-weight="bold" text-anchor="middle">Favorites and Smart Search</text>
  <text x="585" y="528" font-family="Arial" font-size="9" fill="#94a3b8" text-anchor="middle">Save tools and filter by price</text>
  <rect x="0" y="560" width="800" height="40" fill="#1e293b"/>
  <text x="400" y="584" font-family="Arial" font-size="10" fill="white" text-anchor="middle">topaitools.xyz - Discover the Best AI Tools</text>
</svg>
